<svg width="202" height="37" viewBox="0 0 202 37" fill="none" xmlns="http://www.w3.org/2000/svg">
<path d="M200.56 28.1101H173.563V27.2107H200.56V28.1101ZM187.107 23.0731L189.67 20.6445L190.677 21.6339L187.931 23.8826C187.748 24.1525 187.565 24.6022 187.382 24.872H185.369C185.692 24.0755 186.315 23.4316 187.107 23.0731V23.0731ZM178.505 7.78206C178.413 7.78206 176.4 8.32175 176.4 8.32175C175.93 8.505 175.472 8.71524 175.027 8.95138C174.57 9.22122 174.112 9.67096 174.112 9.9408L175.942 10.3905C176.194 10.0986 176.469 9.82787 176.766 9.58101L177.224 9.40112L178.688 7.87201C178.779 7.78207 178.779 7.69212 178.459 7.78206H178.505ZM190.86 12.6392C189.746 11.4429 188.707 10.1813 187.748 8.86143C188.438 7.17992 188.689 5.35583 188.48 3.55454C188.107 2.89139 187.678 2.25962 187.199 1.66565C187.016 1.39581 186.192 0.496338 185.826 0.496338C185.735 0.496338 185.643 0.496338 185.643 0.586285L185.735 1.5757C184.545 2.29528 183.172 3.19476 181.983 4.09423C181.959 4.45648 181.99 4.82015 182.074 5.17359C182.266 5.32667 182.483 5.44816 182.715 5.53338C183.529 5.3401 184.354 5.18997 185.186 5.08365L183.63 7.33233L181.799 8.59159L179.603 7.87201C179.42 7.87201 179.329 7.87201 179.237 7.96196L177.59 9.67096C177.534 9.71377 177.488 9.76828 177.457 9.83053C177.425 9.89277 177.408 9.96117 177.407 10.0307L177.315 11.9196V12.5493C177.285 13.2902 177.511 14.0194 177.956 14.6181L178.962 13.089C178.756 12.7538 178.601 12.39 178.505 12.0096V10.3905L179.512 9.67096L182.257 11.5599C182.674 12.3237 183.164 13.0466 183.721 13.7186C184.942 14.7667 186.259 15.7002 187.657 16.507C187.774 17.2118 187.958 17.9044 188.206 18.5757L191.5 21.9038L189.578 24.3324C189.208 24.5243 188.895 24.8077 188.671 25.1547C188.446 25.5017 188.317 25.9003 188.297 26.3112H190.585L190.86 25.0519L193.605 22.0837C193.788 21.9038 193.788 21.8138 193.697 21.6339L192.964 19.1154C193.66 18.3382 194.077 17.3591 194.154 16.3271C194.154 13.8985 191.683 13.2688 190.86 12.5942V12.6392ZM194.978 16.5969C194.81 16.0118 194.595 15.4404 194.337 14.8879C194.337 14.8879 194.429 14.798 194.703 14.8879C194.978 14.9778 196.351 15.9673 196.351 15.9673C197.083 16.9567 197.54 21.2742 197.54 22.8033C196.738 22.4738 195.997 22.0181 195.344 21.454L194.978 16.5969Z" fill="black"/>
<path d="M124.876 15.6075C124.876 13.9884 124.327 12.7292 122.955 12.7292C121.582 12.7292 120.941 13.9884 120.941 15.6075V26.3112H122.589V28.0202H113.345V26.3112H115.084V11.5599H113.345V9.89583H120.575V12.6842H120.667C121.073 11.7506 121.749 10.9547 122.612 10.3952C123.474 9.83557 124.484 9.53687 125.517 9.53604C126.657 9.46883 127.782 9.81704 128.677 10.514C129.572 11.211 130.174 12.2079 130.367 13.3138C130.545 14.2937 130.637 15.2868 130.642 16.2821V26.3562H132.838V28.0652H124.785L124.876 15.5625V15.6075ZM87.4463 15.5625C87.4463 13.9435 86.8972 12.6842 85.5244 12.6842C84.1517 12.6842 83.5111 13.9435 83.5111 15.5625V26.2662H85.1584V27.9752H75.9152V26.2662H77.654V11.5599H75.9152V9.89583H83.145V12.6842H83.2365C83.643 11.7506 84.3192 10.9547 85.1813 10.3952C86.0435 9.83557 87.0537 9.53687 88.0869 9.53604C89.2266 9.46883 90.3516 9.81704 91.2465 10.514C92.1414 11.211 92.7434 12.2079 92.9372 13.3138C93.1153 14.2937 93.2072 15.2868 93.2118 16.2821V26.3562H95.4082V28.0652H87.3547L87.4463 15.5625V15.5625ZM140.8 11.5149V24.917C140.786 25.074 140.807 25.2321 140.862 25.3802C140.917 25.5284 141.004 25.6629 141.118 25.7743C141.231 25.8857 141.368 25.9714 141.519 26.0253C141.669 26.0792 141.83 26.1001 141.99 26.0863C142.363 26.0771 142.732 26.0166 143.088 25.9064V27.5255C141.986 28.0774 140.753 28.3261 139.519 28.2451C136.682 28.2451 134.943 26.8959 134.943 23.9276V11.5599H133.021V10.3905C135.218 8.68154 137.78 6.7027 139.794 5.08365H140.892V9.89583H143.683V11.5149H140.8ZM25.3982 0.496338C25.3982 0.496338 29.8825 4.90375 31.8958 7.15243V8.86143C29.2939 6.52169 25.9046 5.20845 22.3781 5.1736C14.0501 5.1736 8.83371 11.38 8.83371 19.0255C8.83371 26.671 13.7756 32.7874 22.3781 32.7874C24.1733 32.8022 25.9524 32.4545 27.6053 31.766C29.2582 31.0775 30.7497 30.0628 31.9874 28.7848V30.4038C29.4249 33.9117 24.666 36.1604 18.7175 36.1604C8.10158 36.2504 0.780273 28.6948 0.780273 19.0704C0.796955 16.7768 1.27498 14.509 2.18684 12.3977C3.0987 10.2863 4.42639 8.37304 6.0935 6.76796C7.76061 5.16287 9.73422 3.89767 11.9008 3.04516C14.0673 2.19266 16.384 1.76968 18.7175 1.80057C20.9887 1.80745 23.2442 2.17186 25.3982 2.87994V0.496338ZM110.6 23.253C110.109 23.8243 109.49 24.276 108.791 24.5725C108.092 24.8691 107.333 25.0024 106.573 24.962C104.926 24.962 102.272 24.0625 102.18 19.835H112.064C112.064 19.4752 112.156 18.8456 112.156 18.4858C112.156 13.3588 110.051 9.58101 104.468 9.58101C98.8858 9.58101 96.0488 13.8085 96.0488 19.0255C96.0488 24.2424 98.8858 28.38 104.468 28.38C105.964 28.4586 107.45 28.0987 108.737 27.346C110.024 26.5934 111.055 25.4818 111.698 24.1525L110.6 23.253ZM102.089 18.0361C102.089 13.2688 102.455 11.4699 104.102 11.4699C105.75 11.4699 106.116 13.1789 106.207 18.0361H102.089ZM20.5478 18.9355C20.5478 13.3588 21.0969 10.9302 23.0187 10.9302C24.9406 10.9302 25.4897 13.3588 25.4897 18.9355C25.4897 24.5123 24.9406 26.9408 23.0187 26.9408C21.0969 26.9408 20.5478 24.5123 20.5478 18.9355V18.9355ZM13.6841 19.0255C13.6841 24.5123 17.0702 29.0096 23.0187 29.0096C28.9673 29.0096 32.3534 24.5123 32.3534 19.0255C32.3534 13.5387 28.9673 8.99635 23.0187 8.99635C17.0702 8.99635 13.6841 13.4937 13.6841 18.9805V19.0255ZM45.3487 15.5625C45.3487 13.9435 44.7996 12.6842 43.4269 12.6842C42.0542 12.6842 41.4135 13.9435 41.4135 15.5625V26.2662H43.0151V27.9752H33.8177V26.2662H35.5565V11.5599H33.8177V9.89583H41.0475V12.6842H41.139C41.5455 11.7506 42.2216 10.9547 43.0838 10.3952C43.9459 9.83557 44.9562 9.53687 45.9894 9.53604C47.1291 9.46883 48.2541 9.81704 49.149 10.514C50.0439 11.211 50.6458 12.2079 50.8397 13.3138C51.0178 14.2937 51.1096 15.2868 51.1143 16.2821V26.3562H53.3107V28.0652H45.2572V15.6075L45.3487 15.5625ZM66.306 5.03867C66.306 6.65772 67.7702 7.73709 69.8751 7.73709C71.98 7.73709 73.4443 6.65772 73.4443 5.03867C73.4443 3.41962 71.98 2.34026 69.8751 2.34026C67.7702 2.34026 66.306 3.50957 66.306 5.03867ZM61.2726 11.5149V24.917C61.2586 25.074 61.2798 25.2321 61.3346 25.3802C61.3895 25.5284 61.4767 25.6629 61.5901 25.7743C61.7035 25.8857 61.8403 25.9714 61.991 26.0253C62.1417 26.0792 62.3026 26.1001 62.4623 26.0863C62.8351 26.0771 63.2048 26.0166 63.5605 25.9064V27.5255C62.4586 28.0774 61.2253 28.3261 59.9914 28.2451C57.1544 28.2451 55.4155 26.8959 55.4155 23.9276V11.5599H53.4937V10.3905C55.6901 8.68154 58.2525 6.7027 60.2659 5.08365H61.3183V9.89583H63.6063V11.5149H61.2726ZM169.262 26.3562H171.55V28.0652H163.405V4.90375H161.391V3.19476H169.308V26.4011L169.262 26.3562ZM153.613 19.0704C153.251 18.789 152.79 18.6596 152.331 18.7107C150.593 18.7107 150.226 20.4197 150.226 22.1287C150.226 23.8377 150.776 25.1869 152.24 25.1869C152.496 25.2112 152.754 25.1749 152.993 25.081C153.232 24.9871 153.444 24.8383 153.613 24.6472V19.0704ZM153.796 25.9064C153.271 26.6962 152.55 27.3418 151.702 27.7824C150.853 28.223 149.905 28.4441 148.945 28.425C145.925 28.425 144.095 25.9064 144.095 22.8482C144.095 19.2503 146.749 16.9117 150.959 16.9117C151.858 16.8802 152.756 17.002 153.613 17.2715V16.1022C153.652 15.6555 153.591 15.2058 153.434 14.7846C153.278 14.3634 153.03 13.9809 152.707 13.6639C152.385 13.3468 151.996 13.1029 151.567 12.9492C151.139 12.7955 150.681 12.7358 150.226 12.7741C149.4 12.7758 148.586 12.9728 147.854 13.3485C147.121 13.7242 146.491 14.2676 146.017 14.9329L145.01 13.6736C145.779 12.4356 146.853 11.4077 148.132 10.6846C149.412 9.96151 150.856 9.56653 152.331 9.53604C156.816 9.53604 159.47 12.1445 159.47 16.1022V26.3562H161.391V28.0652H153.887L153.796 25.9064V25.9064ZM65.2993 28.0652V26.3562H66.9466V11.5599H65.2993V9.89583H72.8037V26.3562H74.5425V28.0652H65.2993Z" fill="black"/>
</svg>
